<?xml version="1.0"?>
<svg xmlns="http://www.w3.org/2000/svg" viewBox="0 0 64 64" width="512px" height="512px" class=""><g><g id="moist"><path d="M50,28A13,13,0,1,0,37,15,13.015,13.015,0,0,0,50,28ZM50,4A11,11,0,1,1,39,15,11.013,11.013,0,0,1,50,4Z" data-original="#000000" class="active-path" data-old_color="#000000" fill="#FFFFFF"/><path d="M42.925,18.866a1,1,0,0,0,.562-1.3A6.966,6.966,0,0,1,43,15a1,1,0,0,0-2,0,8.935,8.935,0,0,0,.628,3.3,1,1,0,0,0,1.3.563Z" data-original="#000000" class="active-path" data-old_color="#000000" fill="#FFFFFF"/><path d="M43.143,20.824q.138.163.285.319a1.034,1.034,0,0,0,.246.19,1.04,1.04,0,0,0,.2.251,8.985,8.985,0,0,0,2.444,1.625.923.923,0,0,0,.2.043.939.939,0,0,0,.184.12A8.932,8.932,0,0,0,50,24a1,1,0,0,0,0-2,6.949,6.949,0,0,1-2.567-.487.9.9,0,0,0-.162-.029.939.939,0,0,0-.136-.1,7.038,7.038,0,0,1-1.9-1.265.972.972,0,0,0-.2-.146,1.034,1.034,0,0,0-.151-.207c-.074-.079-.146-.159-.215-.241a1,1,0,0,0-1.523,1.3Z" data-original="#000000" class="active-path" data-old_color="#000000" fill="#FFFFFF"/><path d="M13,26A11,11,0,1,0,2,15,11.013,11.013,0,0,0,13,26ZM13,6a9,9,0,1,1-9,9A9.01,9.01,0,0,1,13,6Z" data-original="#000000" class="active-path" data-old_color="#000000" fill="#FFFFFF"/><path d="M17.931,14.169A5,5,0,0,1,18,15a1,1,0,0,0,2,0,6.953,6.953,0,0,0-.1-1.164,1,1,0,0,0-1.972.333Z" data-original="#000000" class="active-path" data-old_color="#000000" fill="#FFFFFF"/><path d="M13,10a5,5,0,0,1,.831.069.949.949,0,0,0,.167.014.451.451,0,0,0,.053-.01.882.882,0,0,0,.155.074A5.007,5.007,0,0,1,16.47,11.4c.021.021.044.04.067.059s.042.051.066.076c.086.089.169.182.249.277a1,1,0,0,0,1.539-1.277c-.113-.135-.229-.266-.351-.392a.9.9,0,0,0-.092-.083.934.934,0,0,0-.09-.1,7,7,0,0,0-3.17-1.757.943.943,0,0,0-.275-.013.967.967,0,0,0-.25-.1A7.039,7.039,0,0,0,13,8a1,1,0,0,0,0,2Z" data-original="#000000" class="active-path" data-old_color="#000000" fill="#FFFFFF"/><path d="M46,41A11,11,0,1,0,57,52,11.013,11.013,0,0,0,46,41Zm0,20a9,9,0,1,1,9-9A9.01,9.01,0,0,1,46,61Z" data-original="#000000" class="active-path" data-old_color="#000000" fill="#FFFFFF"/><path d="M46.831,56.931A5,5,0,0,1,46,57a1,1,0,0,0,0,2,7.039,7.039,0,0,0,1.163-.1,1,1,0,1,0-.332-1.972Z" data-original="#000000" class="active-path" data-old_color="#000000" fill="#FFFFFF"/><path d="M51,52a5,5,0,0,1-.069.831.933.933,0,0,0,.006.2.923.923,0,0,0-.083.177A5,5,0,0,1,49.6,55.469c-.021.022-.041.044-.06.068a.832.832,0,0,0-.072.063c-.091.087-.185.171-.281.251a1,1,0,1,0,1.277,1.539c.134-.111.263-.226.389-.347a1.113,1.113,0,0,0,.087-.095,1.032,1.032,0,0,0,.1-.09A7,7,0,0,0,52.8,53.687a.994.994,0,0,0,.011-.255.943.943,0,0,0,.1-.268A6.953,6.953,0,0,0,53,52a1,1,0,0,0-2,0Z" data-original="#000000" class="active-path" data-old_color="#000000" fill="#FFFFFF"/><path d="M13,34A11,11,0,1,0,24,45,11.013,11.013,0,0,0,13,34Zm0,20a9,9,0,1,1,9-9A9.01,9.01,0,0,1,13,54Z" data-original="#000000" class="active-path" data-old_color="#000000" fill="#FFFFFF"/><path d="M8.069,45.831A5,5,0,0,1,8,45a1,1,0,0,0-2,0,6.953,6.953,0,0,0,.1,1.164A1,1,0,0,0,7.082,47a.949.949,0,0,0,.167-.014A1,1,0,0,0,8.069,45.831Z" data-original="#000000" class="active-path" data-old_color="#000000" fill="#FFFFFF"/><path d="M13,50a5,5,0,0,1-.831-.069.945.945,0,0,0-.2.006.918.918,0,0,0-.176-.084A5.007,5.007,0,0,1,9.53,48.6c-.021-.021-.044-.04-.067-.059s-.042-.051-.066-.076c-.086-.089-.169-.182-.249-.277a1,1,0,0,0-1.539,1.277c.113.135.229.266.351.392a.9.9,0,0,0,.092.083.934.934,0,0,0,.09.1,7,7,0,0,0,3.17,1.757,1.008,1.008,0,0,0,.242.03c.018,0,.035-.008.053-.009a.968.968,0,0,0,.23.088A7.039,7.039,0,0,0,13,52a1,1,0,0,0,0-2Z" data-original="#000000" class="active-path" data-old_color="#000000" fill="#FFFFFF"/><path d="M57,34a3,3,0,1,0,3,3A3,3,0,0,0,57,34Zm0,4a1,1,0,1,1,1-1A1,1,0,0,1,57,38Z" data-original="#000000" class="active-path" data-old_color="#000000" fill="#FFFFFF"/><path d="M33,11a3,3,0,1,0-3-3A3,3,0,0,0,33,11Zm0-4a1,1,0,1,1-1,1A1,1,0,0,1,33,7Z" data-original="#000000" class="active-path" data-old_color="#000000" fill="#FFFFFF"/><path d="M13,30a3,3,0,1,0,3-3A3,3,0,0,0,13,30Zm4,0a1,1,0,1,1-1-1A1,1,0,0,1,17,30Z" data-original="#000000" class="active-path" data-old_color="#000000" fill="#FFFFFF"/><path d="M26,54a3,3,0,1,0,3,3A3,3,0,0,0,26,54Zm0,4a1,1,0,1,1,1-1A1,1,0,0,1,26,58Z" data-original="#000000" class="active-path" data-old_color="#000000" fill="#FFFFFF"/><path d="M39,32a7,7,0,1,0-7,7A7.008,7.008,0,0,0,39,32Zm-7,5a5,5,0,1,1,5-5A5.006,5.006,0,0,1,32,37Z" data-original="#000000" class="active-path" data-old_color="#000000" fill="#FFFFFF"/></g></g> </svg>
