<?xml version="1.0"?>
<svg xmlns="http://www.w3.org/2000/svg" id="Outline" viewBox="0 0 64 64" width="512px" height="512px" class=""><g><path d="M30,56A25.98411,25.98411,0,0,1,4.96509,23h5.29126A.74436.74436,0,0,1,11,23.74365v3.72852a2.7352,2.7352,0,0,0,.46094,1.522l3.27929,4.91895a.74439.74439,0,0,1,.10254.59228l-.65673,2.627a2.74727,2.74727,0,0,0,.208,1.89161l1.38867,2.77685a2.725,2.725,0,0,0,1.58643,1.37647l1.48731.4956a.74775.74775,0,0,1,.4707.47022l1.32666,3.98144A2.74357,2.74357,0,0,0,26,47.25635V43.41162a.74831.74831,0,0,1,.07861-.33252l1.63184-3.26367A2.75774,2.75774,0,0,0,28,38.58838V34.74365A2.747,2.747,0,0,0,25.25635,32H21.07764a.73917.73917,0,0,1-.665-.41113L19.28418,29.333a.74882.74882,0,0,1,0-.66553l1.42627-2.85205A2.75774,2.75774,0,0,0,21,24.58838v-.84473A.74436.74436,0,0,1,21.74365,23h.97364a.73726.73726,0,0,1,.23486.03809l2.0459.68164a2.75084,2.75084,0,0,0,2.09521-.14795l2.98584-1.49317a2.763,2.763,0,0,0,.96778-.80761l1.647-2.19629a2.74336,2.74336,0,0,0-.67237-3.9292l-1.02783-.68457A2.73244,2.73244,0,0,0,29.47217,14H26.41162a.74831.74831,0,0,1-.33252-.07861L23.352,12.55811a2.754,2.754,0,0,0-2.74853.17089l-.49414.32959a1.00216,1.00216,0,0,1-1.38672-.27734l-.29688-.44531A2.994,2.994,0,0,0,15.92969,11H12.27808a25.96681,25.96681,0,0,1,35.05346-.38135l1.334-1.49023A27.99228,27.99228,0,1,0,40.37012,56.0166l-.74121-1.85742A25.86564,25.86564,0,0,1,30,56ZM16.76172,13.44531l.29687.44531a2.99939,2.99939,0,0,0,4.16016.832l.49365-.32911a.74577.74577,0,0,1,.74512-.04638l2.72705,1.36328A2.75774,2.75774,0,0,0,26.41162,16h3.06055a.74385.74385,0,0,1,.4126.125l1.02734.68457a.74468.74468,0,0,1,.18213,1.06494l-1.64649,2.19531a.75236.75236,0,0,1-.26318.21973l-2.98535,1.49316a.74663.74663,0,0,1-.56787.04L23.584,21.14062A2.73982,2.73982,0,0,0,22.71729,21h-.97364A2.747,2.747,0,0,0,19,23.74365v.84473a.74831.74831,0,0,1-.07861.33252l-1.42627,2.85254a2.75829,2.75829,0,0,0,0,2.45361l1.12842,2.25635A2.72876,2.72876,0,0,0,21.07764,34h4.17871A.74436.74436,0,0,1,26,34.74365v3.84473a.74831.74831,0,0,1-.07861.33252l-1.63184,3.26367A2.75774,2.75774,0,0,0,24,43.41162v3.84473a.74354.74354,0,0,1-1.44873.23584l-1.32666-3.98145a2.75812,2.75812,0,0,0-1.73584-1.73535L18.002,41.28027a.75018.75018,0,0,1-.43017-.37353l-1.38867-2.77735a.74159.74159,0,0,1-.05665-.5122l.65674-2.62647a2.74918,2.74918,0,0,0-.3789-2.187L13.125,27.88525A.74657.74657,0,0,1,13,27.47217V23.74365A2.747,2.747,0,0,0,10.25635,21H5.60773a26.01687,26.01687,0,0,1,4.745-8h5.57691A.99843.99843,0,0,1,16.76172,13.44531Z" data-original="#000000" class="active-path" data-old_color="#000000" fill="#FFFFFF"/><path d="M43,42H41.6665a1.0053,1.0053,0,0,1-.59961-.19971l-2.82617-2.11963a.99454.99454,0,0,1-.38623-.63574l-.74219-4.45459a2.99256,2.99256,0,0,0-1.08544-1.84912L32.376,29.82031A.99642.99642,0,0,1,32,29.03857V27.07031a.99843.99843,0,0,1,.44531-.832l1.606-1.07031a.99435.99435,0,0,1,.5542-.168h.833a2.9958,2.9958,0,0,0,2.91064-2.27246l.56836-2.27393a.94849.94849,0,0,1,.0752-.20263l1.34912-2.69825A.9945.9945,0,0,1,41.23584,17H43V15H41.23584a2.98411,2.98411,0,0,0-2.68311,1.6582L37.20459,19.355a2.98085,2.98085,0,0,0-.228.61523l-.56787,2.272A.99825.99825,0,0,1,35.43848,23h-.833a2.98882,2.98882,0,0,0-1.66406.50391l-1.60547,1.07031A2.994,2.994,0,0,0,30,27.07031v1.96826a2.98721,2.98721,0,0,0,1.126,2.34278l3.65185,2.92187a.99557.99557,0,0,1,.36182.61621l.74219,4.45411A2.98591,2.98591,0,0,0,37.041,41.28076L39.8667,43.3999A3.01537,3.01537,0,0,0,41.6665,44H43Z" data-original="#000000" class="active-path" data-old_color="#000000" fill="#FFFFFF"/><path d="M59,44.87256V19a7,7,0,0,0-14,0V44.87256a10,10,0,1,0,14,0ZM52,60a7.99076,7.99076,0,0,1-5.33252-13.9502L47,45.75146V19a5,5,0,0,1,10,0V45.75146l.33252.29834A7.99076,7.99076,0,0,1,52,60Z" data-original="#000000" class="active-path" data-old_color="#000000" fill="#FFFFFF"/><path d="M55,48.02051V19a3,3,0,0,0-6,0V48.02051a5,5,0,1,0,6,0ZM52,18a1.0013,1.0013,0,0,1,1,1v5H51V19A1.0013,1.0013,0,0,1,52,18Zm0,37a3.00328,3.00328,0,0,1-3-3,2.96748,2.96748,0,0,1,1.50293-2.581L51,49.12988V26h2V49.12988l.49707.28907A2.96748,2.96748,0,0,1,55,52,3.00328,3.00328,0,0,1,52,55Z" data-original="#000000" class="active-path" data-old_color="#000000" fill="#FFFFFF"/></g> </svg>
