<?xml version="1.0"?>
<svg xmlns="http://www.w3.org/2000/svg" height="512px" viewBox="0 -37 472 472" width="512px" class=""><g><path d="m472 105.199219v-64.65625c0-22.605469-17.699219-40.542969-39.453125-40.542969h-393.097656c-21.75 0-39.449219 17.9375-39.449219 40.542969v316.914062c0 22.605469 17.699219 40.542969 39.449219 40.542969h393.097656c21.753906 0 39.453125-17.9375 39.453125-40.542969v-252.105469c0-.027343 0-.050781 0-.078124 0-.027344 0-.050782 0-.074219zm-432.550781-89.199219h393.097656c12.929687 0 23.453125 10.761719 23.453125 24.542969v56.457031h-440v-56.457031c0-13.78125 10.519531-24.542969 23.449219-24.542969zm393.097656 366h-393.097656c-12.929688 0-23.449219-10.761719-23.449219-24.542969v-244.457031h440v244.457031c0 13.78125-10.523438 24.542969-23.453125 24.542969zm0 0" data-original="#000000" class="active-path" data-old_color="#000000" fill="#FFFFFF"/><path d="m123.308594 87.03125c15.972656 0 28.96875-13.453125 28.96875-29.992188 0-16.539062-12.996094-29.996093-28.96875-29.996093-15.96875 0-28.964844 13.457031-28.964844 29.996093 0 16.535157 12.996094 29.992188 28.964844 29.992188zm0-43.988281c7.152344 0 12.96875 6.277343 12.96875 13.996093 0 7.714844-5.816406 13.992188-12.96875 13.992188-7.148438 0-12.964844-6.277344-12.964844-13.992188 0-7.71875 5.816406-13.996093 12.964844-13.996093zm0 0" data-original="#000000" class="active-path" data-old_color="#000000" fill="#FFFFFF"/><path d="m191.449219 87.03125c15.972656 0 28.964843-13.453125 28.964843-29.992188 0-16.539062-12.992187-29.996093-28.964843-29.996093-15.972657 0-28.96875 13.457031-28.96875 29.996093 0 16.535157 12.996093 29.992188 28.96875 29.992188zm0-43.988281c7.148437 0 12.964843 6.277343 12.964843 13.996093 0 7.714844-5.816406 13.992188-12.964843 13.992188-7.148438 0-12.96875-6.277344-12.96875-13.992188 0-7.71875 5.820312-13.996093 12.96875-13.996093zm0 0" data-original="#000000" class="active-path" data-old_color="#000000" fill="#FFFFFF"/><path d="m55.171875 87.03125c15.972656 0 28.964844-13.453125 28.964844-29.992188 0-16.539062-12.992188-29.996093-28.964844-29.996093s-28.964844 13.457031-28.964844 29.996093c0 16.535157 12.992188 29.992188 28.964844 29.992188zm0-43.988281c7.148437 0 12.964844 6.277343 12.964844 13.996093 0 7.714844-5.816407 13.992188-12.964844 13.992188s-12.964844-6.277344-12.964844-13.992188c0-7.71875 5.816407-13.996093 12.964844-13.996093zm0 0" data-original="#000000" class="active-path" data-old_color="#000000" fill="#FFFFFF"/><path d="m241.351562 147.355469c-3.003906-2.609375-7.472656-2.609375-10.480468-.003907l-82.5 71.441407c-2.527344 2.214843-3.425782 5.753906-2.265625 8.90625 1.160156 3.148437 4.144531 5.257812 7.503906 5.300781h10.390625v82.433594c.042969 4.453125 3.601562 8.078125 8.054688 8.199218l126.152343 1.367188h.074219c2.089844-.078125 4.066406-.980469 5.488281-2.515625 1.484375-1.597656 2.285157-3.707031 2.230469-5.882813v-83.601562h12.390625c3.351563-.035156 6.332031-2.136719 7.492187-5.277344 1.164063-3.140625.269532-6.671875-2.246093-8.882812zm-5.25 16.789062 60.875 52.855469h-121.910156zm12.898438 144-25-.234375v-29.910156h25zm41 .382813-25-.234375v-38.277344c.027344-2.113281-.789062-4.144531-2.269531-5.652344-1.480469-1.503906-3.5-2.355469-5.613281-2.363281h-41.5625c-4.417969 0-7.554688 3.601562-7.554688 8.015625v37.746094l-28-.253907v-74.507812h110zm0 0" data-original="#000000" class="active-path" data-old_color="#000000" fill="#FFFFFF"/></g> </svg>
