<?xml version="1.0"?>
<svg xmlns="http://www.w3.org/2000/svg" xmlns:xlink="http://www.w3.org/1999/xlink" version="1.1" id="Capa_1" x="0px" y="0px" viewBox="0 0 480.8 480.8" style="enable-background:new 0 0 480.8 480.8;" xml:space="preserve" width="512px" height="512px" class=""><g><g>
	<g>
		<path d="M448.784,48h-160V32c0-17.6-14.4-32-32-32h-224c-17.6,0-32,14.4-32,32v176c0,88,84,88,112,88c4.8,0,8-3.2,8-8s-3.2-8-8-8    c-17.6,0-32-14.4-32-32c0-0.8,0-2.4,0-3.2c2.4-16.8,16.8-28.8,33.6-28.8h110.4v16h-72c-4.8,0-8,3.2-8,8c0,18.4,7.2,36,19.2,48.8    c-2.4,8-3.2,15.2-3.2,23.2c0,32,19.2,60.8,48,73.6c0,4.8-2.4,14.4-24,14.4c-22.4,0-40,17.6-40,40v40h16v-40    c0-12.8,9.6-23.2,22.4-24l39.2,19.2c3.2,1.6,7.2,3.2,10.4,4V480h16v-40.8c4-0.8,7.2-1.6,10.4-3.2l39.2-19.2    c12.8,0.8,22.4,11.2,22.4,24v40h16v-40c0-22.4-17.6-40-40-40c-21.6,0-24-9.6-24-14.4c30.4-12.8,48.8-43.2,48-76c0-1.6,0-4.8,0-5.6    c0-11.2-2.4-22.4-8-32h53.6c16.8,0,31.2,12,33.6,28.8c1.6,17.6-11.2,33.6-28.8,35.2c-0.8,0-2.4,0-3.2,0c-4.8,0-8,3.2-8,8    s3.2,8,8,8c28,0,112,0,112-88V80C480.784,62.4,466.384,48,448.784,48z M114.384,200c-24.8,0-46.4,18.4-49.6,43.2    c-0.8,12,2.4,24,9.6,33.6c-39.2-8-57.6-29.6-57.6-68.8V32c0-8.8,7.2-16,16-16h224c8.8,0,16,7.2,16,16v152c0,8.8-7.2,16-16,16    H114.384z M161.584,248h87.2c28,0,51.2,20.8,55.2,48h-87.2C188.784,296,165.584,275.2,161.584,248z M262.384,372    c-3.2,0.8-5.6,4-5.6,7.2v4.8c-0.8,11.2,5.6,22.4,16,27.2l-20.8,10.4c-7.2,3.2-16,3.2-23.2,0l-20-10.4c10.4-4.8,16.8-16,16-27.2v-4    c0-3.2-2.4-6.4-5.6-7.2c-25.6-9.6-42.4-33.6-42.4-60.8c0-4,0-8,0.8-11.2c11.2,7.2,24.8,11.2,39.2,11.2h88    C304.784,339.2,287.984,363.2,262.384,372z M464.784,264c0,39.2-18.4,60.8-57.6,68.8c7.2-9.6,10.4-21.6,9.6-33.6    c-3.2-24.8-24-43.2-49.6-43.2h-64.8c-13.6-15.2-32.8-24-53.6-24h-8v-16h16c17.6,0,32-14.4,32-32V64h160c8.8,0,16,7.2,16,16V264z" data-original="#000000" class="active-path" data-old_color="#000000" fill="#FFFFFF"/>
	</g>
</g><g>
	<g>
		<path d="M184.784,88h-8c-4.8,0-8-3.2-8-8V56c0-13.6-10.4-24-24-24c-13.6,0-24,10.4-24,24v24c0,4.8-3.2,8-8,8c0-4.8-3.2-8-8-8h-32    c-4.8,0-8,3.2-8,8v88c0,4.8,3.2,8,8,8h32c4.8,0,8-3.2,8-8h72c13.6,0,24-10.4,24-24v-40C208.784,98.4,198.384,88,184.784,88z     M96.784,168h-16V96h16V168z M192.784,152c0,4.8-3.2,8-8,8h-72v-56c13.6,0,24-10.4,24-24V56c0-4.8,3.2-8,8-8s8,3.2,8,8v24    c0,13.6,10.4,24,24,24h8c4.8,0,8,3.2,8,8V152z" data-original="#000000" class="active-path" data-old_color="#000000" fill="#FFFFFF"/>
	</g>
</g><g>
	<g>
		<path d="M440.784,80h-32c-4.8,0-8,3.2-8,8h-72c-13.6,0-24,10.4-24,24v40c0,13.6,10.4,24,24,24h8c4.8,0,8,3.2,8,8v24    c0,13.6,10.4,24,24,24c13.6,0,24-10.4,24-24v-24c0-4.8,3.2-8,8-8c0,4.8,3.2,8,8,8h32c4.8,0,8-3.2,8-8V88    C448.784,83.2,445.584,80,440.784,80z M400.784,160c-13.6,0-24,10.4-24,24v24c0,4.8-3.2,8-8,8s-8-3.2-8-8v-24    c0-13.6-10.4-24-24-24h-8c-4.8,0-8-3.2-8-8v-40c0-4.8,3.2-8,8-8h72V160z M432.784,168h-16V96h16V168z" data-original="#000000" class="active-path" data-old_color="#000000" fill="#FFFFFF"/>
	</g>
</g><g>
	<g>
		<rect x="296.784" y="208" width="32" height="16" data-original="#000000" class="active-path" data-old_color="#000000" fill="#FFFFFF"/>
	</g>
</g><g>
	<g>
		<polygon points="216.784,40 216.784,32 200.784,32 200.784,40 192.784,40 192.784,56 200.784,56 200.784,64 216.784,64     216.784,56 224.784,56 224.784,40   " data-original="#000000" class="active-path" data-old_color="#000000" fill="#FFFFFF"/>
	</g>
</g></g> </svg>
